<svg width="236" height="51" viewBox="0 0 236 51" fill="none" xmlns="http://www.w3.org/2000/svg">
    <path d="M0 20C0 8.9543 8.9543 0 20 0H131V31C131 42.0457 122.046 51 111 51H0V20Z" fill="#0068A3" />
    <path d="M20.31 35V15.44H32.64V19.16H24.72V23.69H31.5V27.41H24.72V35H20.31ZM35.6824 35V20.12H40.0924V35H35.6824ZM37.8724 17.93C37.1324 17.93 36.5324 17.72 36.0724 17.3C35.6124 16.88 35.3824 16.32 35.3824 15.62C35.3824 14.92 35.6124 14.36 36.0724 13.94C36.5324 13.52 37.1324 13.31 37.8724 13.31C38.6124 13.31 39.2124 13.52 39.6724 13.94C40.1324 14.36 40.3624 14.92 40.3624 15.62C40.3624 16.32 40.1324 16.88 39.6724 17.3C39.2124 17.72 38.6124 17.93 37.8724 17.93ZM43.9734 35V20.12H47.5734L47.8734 22.01H47.9934C48.6134 21.39 49.3134 20.86 50.0934 20.42C50.8734 19.98 51.7634 19.76 52.7634 19.76C54.4034 19.76 55.5834 20.3 56.3034 21.38C57.0234 22.44 57.3834 23.9 57.3834 25.76V35H52.9734V26.33C52.9734 25.25 52.8234 24.51 52.5234 24.11C52.2434 23.71 51.7834 23.51 51.1434 23.51C50.5834 23.51 50.1034 23.64 49.7034 23.9C49.3034 24.14 48.8634 24.49 48.3834 24.95V35H43.9734ZM64.8914 35.36C63.9914 35.36 63.2014 35.16 62.5214 34.76C61.8614 34.36 61.3514 33.82 60.9914 33.14C60.6314 32.46 60.4514 31.7 60.4514 30.86C60.4514 29.26 61.1114 28.03 62.4314 27.17C63.7514 26.29 65.8814 25.7 68.8214 25.4C68.8014 24.96 68.7014 24.59 68.5214 24.29C68.3614 23.97 68.1114 23.73 67.7714 23.57C67.4314 23.39 67.0014 23.3 66.4814 23.3C65.8614 23.3 65.2314 23.41 64.5914 23.63C63.9514 23.85 63.2614 24.17 62.5214 24.59L60.9614 21.71C61.6014 21.31 62.2614 20.97 62.9414 20.69C63.6214 20.39 64.3214 20.16 65.0414 20C65.7814 19.84 66.5414 19.76 67.3214 19.76C68.6014 19.76 69.6714 20.01 70.5314 20.51C71.4114 20.99 72.0814 21.73 72.5414 22.73C73.0014 23.71 73.2314 24.97 73.2314 26.51V35H69.6314L69.3314 33.47H69.2114C68.5714 34.03 67.9014 34.49 67.2014 34.85C66.5014 35.19 65.7314 35.36 64.8914 35.36ZM66.3614 31.91C66.8614 31.91 67.3014 31.8 67.6814 31.58C68.0614 31.36 68.4414 31.06 68.8214 30.68V28.16C67.7814 28.3 66.9514 28.48 66.3314 28.7C65.7314 28.92 65.3014 29.19 65.0414 29.51C64.8014 29.81 64.6814 30.15 64.6814 30.53C64.6814 30.99 64.8314 31.34 65.1314 31.58C65.4514 31.8 65.8614 31.91 66.3614 31.91ZM76.9617 35V20.12H80.5617L80.8617 22.01H80.9817C81.6017 21.39 82.3017 20.86 83.0817 20.42C83.8617 19.98 84.7517 19.76 85.7517 19.76C87.3917 19.76 88.5717 20.3 89.2917 21.38C90.0117 22.44 90.3717 23.9 90.3717 25.76V35H85.9617V26.33C85.9617 25.25 85.8117 24.51 85.5117 24.11C85.2317 23.71 84.7717 23.51 84.1317 23.51C83.5717 23.51 83.0917 23.64 82.6917 23.9C82.2917 24.14 81.8517 24.49 81.3717 24.95V35H76.9617ZM100.7 35.36C99.2997 35.36 98.0297 35.05 96.8897 34.43C95.7697 33.81 94.8797 32.92 94.2197 31.76C93.5797 30.6 93.2597 29.2 93.2597 27.56C93.2597 25.92 93.6197 24.52 94.3397 23.36C95.0597 22.2 96.0097 21.31 97.1897 20.69C98.3697 20.07 99.6397 19.76 101 19.76C101.92 19.76 102.74 19.91 103.46 20.21C104.2 20.49 104.83 20.87 105.35 21.35L103.28 24.08C103.02 23.86 102.72 23.68 102.38 23.54C102.06 23.4 101.69 23.33 101.27 23.33C100.57 23.33 99.9597 23.5 99.4397 23.84C98.9197 24.18 98.5097 24.67 98.2097 25.31C97.9097 25.95 97.7597 26.7 97.7597 27.56C97.7597 28.42 97.9097 29.17 98.2097 29.81C98.5097 30.45 98.9097 30.94 99.4097 31.28C99.9297 31.62 100.51 31.79 101.15 31.79C101.65 31.79 102.12 31.7 102.56 31.52C103 31.34 103.41 31.11 103.79 30.83L105.53 33.53C104.91 34.09 104.18 34.54 103.34 34.88C102.5 35.2 101.62 35.36 100.7 35.36ZM114.003 35.36C112.583 35.36 111.303 35.05 110.163 34.43C109.023 33.81 108.123 32.92 107.463 31.76C106.803 30.6 106.473 29.2 106.473 27.56C106.473 25.94 106.803 24.55 107.463 23.39C108.143 22.23 109.023 21.34 110.103 20.72C111.183 20.08 112.313 19.76 113.493 19.76C114.913 19.76 116.093 20.08 117.033 20.72C117.973 21.34 118.673 22.19 119.133 23.27C119.593 24.35 119.823 25.56 119.823 26.9C119.823 27.28 119.803 27.66 119.763 28.04C119.723 28.4 119.683 28.69 119.643 28.91H109.893L109.833 25.85H116.043C116.043 25.07 115.853 24.43 115.473 23.93C115.093 23.41 114.463 23.15 113.583 23.15C113.103 23.15 112.633 23.28 112.173 23.54C111.713 23.8 111.333 24.25 111.033 24.89C110.733 25.53 110.593 26.42 110.613 27.56C110.633 28.68 110.833 29.56 111.213 30.2C111.613 30.84 112.113 31.3 112.713 31.58C113.313 31.84 113.943 31.97 114.603 31.97C115.183 31.97 115.733 31.89 116.253 31.73C116.793 31.55 117.323 31.31 117.843 31.01L119.283 33.71C118.543 34.23 117.703 34.64 116.763 34.94C115.823 35.22 114.903 35.36 114.003 35.36Z" fill="white" />
    <path d="M143.522 35.36C141.842 35.36 140.302 34.99 138.902 34.25C137.522 33.49 136.412 32.36 135.572 30.86C134.732 29.36 134.312 27.52 134.312 25.34C134.312 23.72 134.552 22.28 135.032 21.02C135.532 19.74 136.212 18.66 137.072 17.78C137.932 16.9 138.912 16.23 140.012 15.77C141.132 15.31 142.312 15.08 143.552 15.08C144.812 15.08 145.942 15.33 146.942 15.83C147.942 16.33 148.772 16.93 149.432 17.63L147.092 20.3C146.612 19.84 146.092 19.5 145.532 19.28C144.972 19.04 144.342 18.92 143.642 18.92C142.782 18.92 141.982 19.18 141.242 19.7C140.522 20.2 139.942 20.92 139.502 21.86C139.062 22.8 138.842 23.91 138.842 25.19C138.842 26.53 139.052 27.68 139.472 28.64C139.892 29.58 140.472 30.3 141.212 30.8C141.972 31.3 142.842 31.55 143.822 31.55C144.582 31.55 145.262 31.39 145.862 31.07C146.462 30.75 146.992 30.37 147.452 29.93L149.672 32.54C148.832 33.48 147.902 34.19 146.882 34.67C145.862 35.13 144.742 35.36 143.522 35.36ZM152.343 35V13.97H156.753V19.13L156.543 21.8C157.103 21.3 157.753 20.84 158.493 20.42C159.253 19.98 160.133 19.76 161.133 19.76C162.773 19.76 163.953 20.3 164.673 21.38C165.393 22.44 165.753 23.9 165.753 25.76V35H161.343V26.33C161.343 25.25 161.193 24.51 160.893 24.11C160.613 23.71 160.153 23.51 159.513 23.51C158.953 23.51 158.473 23.64 158.073 23.9C157.673 24.14 157.233 24.49 156.753 24.95V35H152.343ZM169.481 35V20.12H173.081L173.381 22.73H173.501C174.041 21.73 174.681 20.99 175.421 20.51C176.181 20.01 176.951 19.76 177.731 19.76C178.151 19.76 178.501 19.79 178.781 19.85C179.061 19.89 179.301 19.96 179.501 20.06L178.661 23.81C178.421 23.75 178.191 23.71 177.971 23.69C177.751 23.65 177.481 23.63 177.161 23.63C176.601 23.63 176.011 23.83 175.391 24.23C174.791 24.63 174.291 25.34 173.891 26.36V35H169.481ZM187.531 35.36C186.271 35.36 185.091 35.06 183.991 34.46C182.891 33.84 181.991 32.95 181.291 31.79C180.611 30.61 180.271 29.2 180.271 27.56C180.271 25.92 180.611 24.52 181.291 23.36C181.991 22.18 182.891 21.29 183.991 20.69C185.091 20.07 186.271 19.76 187.531 19.76C188.771 19.76 189.941 20.07 191.041 20.69C192.141 21.29 193.031 22.18 193.711 23.36C194.411 24.52 194.761 25.92 194.761 27.56C194.761 29.2 194.411 30.61 193.711 31.79C193.031 32.95 192.141 33.84 191.041 34.46C189.941 35.06 188.771 35.36 187.531 35.36ZM187.531 31.79C188.131 31.79 188.631 31.62 189.031 31.28C189.451 30.94 189.761 30.45 189.961 29.81C190.161 29.17 190.261 28.42 190.261 27.56C190.261 26.7 190.161 25.95 189.961 25.31C189.761 24.67 189.451 24.18 189.031 23.84C188.631 23.5 188.131 23.33 187.531 23.33C186.911 23.33 186.401 23.5 186.001 23.84C185.601 24.18 185.301 24.67 185.101 25.31C184.901 25.95 184.801 26.7 184.801 27.56C184.801 28.42 184.901 29.17 185.101 29.81C185.301 30.45 185.601 30.94 186.001 31.28C186.401 31.62 186.911 31.79 187.531 31.79ZM197.782 35V20.12H201.382L201.682 22.04H201.802C202.402 21.42 203.052 20.89 203.752 20.45C204.472 19.99 205.322 19.76 206.302 19.76C207.362 19.76 208.222 19.98 208.882 20.42C209.542 20.84 210.052 21.45 210.412 22.25C211.072 21.57 211.772 20.99 212.512 20.51C213.252 20.01 214.112 19.76 215.092 19.76C216.712 19.76 217.892 20.3 218.632 21.38C219.372 22.44 219.742 23.9 219.742 25.76V35H215.332V26.33C215.332 25.25 215.182 24.51 214.882 24.11C214.602 23.71 214.142 23.51 213.502 23.51C213.122 23.51 212.722 23.63 212.302 23.87C211.882 24.09 211.432 24.45 210.952 24.95V35H206.542V26.33C206.542 25.25 206.392 24.51 206.092 24.11C205.812 23.71 205.352 23.51 204.712 23.51C203.952 23.51 203.112 23.99 202.192 24.95V35H197.782ZM230.165 35.36C228.745 35.36 227.465 35.05 226.325 34.43C225.185 33.81 224.285 32.92 223.625 31.76C222.965 30.6 222.635 29.2 222.635 27.56C222.635 25.94 222.965 24.55 223.625 23.39C224.305 22.23 225.185 21.34 226.265 20.72C227.345 20.08 228.475 19.76 229.655 19.76C231.075 19.76 232.255 20.08 233.195 20.72C234.135 21.34 234.835 22.19 235.295 23.27C235.755 24.35 235.985 25.56 235.985 26.9C235.985 27.28 235.965 27.66 235.925 28.04C235.885 28.4 235.845 28.69 235.805 28.91H226.055L225.995 25.85H232.205C232.205 25.07 232.015 24.43 231.635 23.93C231.255 23.41 230.625 23.15 229.745 23.15C229.265 23.15 228.795 23.28 228.335 23.54C227.875 23.8 227.495 24.25 227.195 24.89C226.895 25.53 226.755 26.42 226.775 27.56C226.795 28.68 226.995 29.56 227.375 30.2C227.775 30.84 228.275 31.3 228.875 31.58C229.475 31.84 230.105 31.97 230.765 31.97C231.345 31.97 231.895 31.89 232.415 31.73C232.955 31.55 233.485 31.31 234.005 31.01L235.445 33.71C234.705 34.23 233.865 34.64 232.925 34.94C231.985 35.22 231.065 35.36 230.165 35.36Z" fill="#0068A3" />
</svg>
    