<svg width="345" height="58" viewBox="0 0 345 58" fill="none" xmlns="http://www.w3.org/2000/svg">
    <path d="M0 20C0 8.95431 8.95431 0 20 0H165V38C165 49.0457 156.046 58 145 58H0V20Z" fill="#DD9F52" />
    <path d="M28.85 44V11.4H40.6C42.9 11.4 45 11.7167 46.9 12.35C48.8 12.95 50.3167 14 51.45 15.5C52.5833 16.9667 53.15 18.9833 53.15 21.55C53.15 24.05 52.5833 26.0833 51.45 27.65C50.3167 29.2167 48.8 30.3833 46.9 31.15C45 31.8833 42.9 32.25 40.6 32.25H36.2V44H28.85ZM36.2 26.4H40C41.9333 26.4 43.4 26 44.4 25.2C45.4333 24.3667 45.95 23.15 45.95 21.55C45.95 19.95 45.4333 18.8333 44.4 18.2C43.4 17.5667 41.9333 17.25 40 17.25H36.2V26.4ZM46.5 44L39.25 30.35L44.35 25.6L54.75 44H46.5ZM69.5258 44.6C67.1591 44.6 65.0258 44.0833 63.1258 43.05C61.2258 42.0167 59.7258 40.5333 58.6258 38.6C57.5258 36.6667 56.9758 34.3333 56.9758 31.6C56.9758 28.9 57.5258 26.5833 58.6258 24.65C59.7591 22.7167 61.2258 21.2333 63.0258 20.2C64.8258 19.1333 66.7091 18.6 68.6758 18.6C71.0424 18.6 73.0091 19.1333 74.5758 20.2C76.1424 21.2333 77.3091 22.65 78.0758 24.45C78.8424 26.25 79.2258 28.2667 79.2258 30.5C79.2258 31.1333 79.1924 31.7667 79.1258 32.4C79.0591 33 78.9924 33.4833 78.9258 33.85H62.6758L62.5758 28.75H72.9258C72.9258 27.45 72.6091 26.3833 71.9758 25.55C71.3424 24.6833 70.2924 24.25 68.8258 24.25C68.0258 24.25 67.2424 24.4667 66.4758 24.9C65.7091 25.3333 65.0758 26.0833 64.5758 27.15C64.0758 28.2167 63.8424 29.7 63.8758 31.6C63.9091 33.4667 64.2424 34.9333 64.8758 36C65.5424 37.0667 66.3758 37.8333 67.3758 38.3C68.3758 38.7333 69.4258 38.95 70.5258 38.95C71.4924 38.95 72.4091 38.8167 73.2758 38.55C74.1758 38.25 75.0591 37.85 75.9258 37.35L78.3258 41.85C77.0924 42.7167 75.6924 43.4 74.1258 43.9C72.5591 44.3667 71.0258 44.6 69.5258 44.6ZM93.3664 44.55C90.2997 44.55 88.0997 43.6667 86.7664 41.9C85.4331 40.1 84.7664 37.7833 84.7664 34.95V24.95H81.4164V19.5L85.2164 19.2L86.0664 11.6H92.1664V19.2H98.1164V24.95H92.1664V34.85C92.1664 36.25 92.4497 37.2667 93.0164 37.9C93.6164 38.5 94.3997 38.8 95.3664 38.8C95.7664 38.8 96.1664 38.7667 96.5664 38.7C96.9664 38.6333 97.3497 38.5333 97.7164 38.4L98.9164 43.55C98.2831 43.8167 97.4831 44.05 96.5164 44.25C95.5831 44.45 94.5331 44.55 93.3664 44.55ZM108.182 44.6C106.682 44.6 105.365 44.2667 104.232 43.6C103.132 42.9333 102.282 42.0333 101.682 40.9C101.082 39.7667 100.782 38.5 100.782 37.1C100.782 34.4333 101.882 32.3833 104.082 30.95C106.282 29.4833 109.832 28.5 114.732 28C114.698 27.2667 114.532 26.65 114.232 26.15C113.965 25.6167 113.548 25.2167 112.982 24.95C112.415 24.65 111.698 24.5 110.832 24.5C109.798 24.5 108.748 24.6833 107.682 25.05C106.615 25.4167 105.465 25.95 104.232 26.65L101.632 21.85C102.698 21.1833 103.798 20.6167 104.932 20.15C106.065 19.65 107.232 19.2667 108.432 19C109.665 18.7333 110.932 18.6 112.232 18.6C114.365 18.6 116.148 19.0167 117.582 19.85C119.048 20.65 120.165 21.8833 120.932 23.55C121.698 25.1833 122.082 27.2833 122.082 29.85V44H116.082L115.582 41.45H115.382C114.315 42.3833 113.198 43.15 112.032 43.75C110.865 44.3167 109.582 44.6 108.182 44.6ZM110.632 38.85C111.465 38.85 112.198 38.6667 112.832 38.3C113.465 37.9333 114.098 37.4333 114.732 36.8V32.6C112.998 32.8333 111.615 33.1333 110.582 33.5C109.582 33.8667 108.865 34.3167 108.432 34.85C108.032 35.35 107.832 35.9167 107.832 36.55C107.832 37.3167 108.082 37.9 108.582 38.3C109.115 38.6667 109.798 38.85 110.632 38.85ZM128.299 44V19.2H135.649V44H128.299ZM131.949 15.55C130.715 15.55 129.715 15.2 128.949 14.5C128.182 13.8 127.799 12.8667 127.799 11.7C127.799 10.5333 128.182 9.6 128.949 8.9C129.715 8.2 130.715 7.85 131.949 7.85C133.182 7.85 134.182 8.2 134.949 8.9C135.715 9.6 136.099 10.5333 136.099 11.7C136.099 12.8667 135.715 13.8 134.949 14.5C134.182 15.2 133.182 15.55 131.949 15.55ZM148.867 44.55C147.201 44.55 145.867 44.2167 144.867 43.55C143.901 42.85 143.201 41.8833 142.767 40.65C142.334 39.3833 142.117 37.9167 142.117 36.25V9H149.467V36.55C149.467 37.35 149.601 37.9 149.867 38.2C150.167 38.4667 150.484 38.6 150.817 38.6C150.951 38.6 151.067 38.6 151.167 38.6C151.301 38.5667 151.467 38.5333 151.667 38.5L152.567 43.95C152.167 44.1167 151.651 44.25 151.017 44.35C150.417 44.4833 149.701 44.55 148.867 44.55Z" fill="white" />
    <path d="M190.843 44.6C188.043 44.6 185.477 43.9833 183.143 42.75C180.843 41.4833 178.993 39.6 177.593 37.1C176.193 34.6 175.493 31.5333 175.493 27.9C175.493 25.2 175.893 22.8 176.693 20.7C177.527 18.5667 178.66 16.7667 180.093 15.3C181.527 13.8333 183.16 12.7167 184.993 11.95C186.86 11.1833 188.827 10.8 190.893 10.8C192.993 10.8 194.877 11.2167 196.543 12.05C198.21 12.8833 199.593 13.8833 200.693 15.05L196.793 19.5C195.993 18.7333 195.127 18.1667 194.193 17.8C193.26 17.4 192.21 17.2 191.043 17.2C189.61 17.2 188.277 17.6333 187.043 18.5C185.843 19.3333 184.877 20.5333 184.143 22.1C183.41 23.6667 183.043 25.5167 183.043 27.65C183.043 29.8833 183.393 31.8 184.093 33.4C184.793 34.9667 185.76 36.1667 186.993 37C188.26 37.8333 189.71 38.25 191.343 38.25C192.61 38.25 193.743 37.9833 194.743 37.45C195.743 36.9167 196.627 36.2833 197.393 35.55L201.093 39.9C199.693 41.4667 198.143 42.65 196.443 43.45C194.743 44.2167 192.877 44.6 190.843 44.6ZM205.545 44V8.95H212.895V17.55L212.545 22C213.478 21.1667 214.562 20.4 215.795 19.7C217.062 18.9667 218.528 18.6 220.195 18.6C222.928 18.6 224.895 19.5 226.095 21.3C227.295 23.0667 227.895 25.5 227.895 28.6V44H220.545V29.55C220.545 27.75 220.295 26.5167 219.795 25.85C219.328 25.1833 218.562 24.85 217.495 24.85C216.562 24.85 215.762 25.0667 215.095 25.5C214.428 25.9 213.695 26.4833 212.895 27.25V44H205.545ZM234.109 44V19.2H240.109L240.609 23.55H240.809C241.709 21.8833 242.776 20.65 244.009 19.85C245.276 19.0167 246.559 18.6 247.859 18.6C248.559 18.6 249.143 18.65 249.609 18.75C250.076 18.8167 250.476 18.9333 250.809 19.1L249.409 25.35C249.009 25.25 248.626 25.1833 248.259 25.15C247.893 25.0833 247.443 25.05 246.909 25.05C245.976 25.05 244.993 25.3833 243.959 26.05C242.959 26.7167 242.126 27.9 241.459 29.6V44H234.109ZM264.193 44.6C262.093 44.6 260.126 44.1 258.293 43.1C256.46 42.0667 254.96 40.5833 253.793 38.65C252.66 36.6833 252.093 34.3333 252.093 31.6C252.093 28.8667 252.66 26.5333 253.793 24.6C254.96 22.6333 256.46 21.15 258.293 20.15C260.126 19.1167 262.093 18.6 264.193 18.6C266.26 18.6 268.21 19.1167 270.043 20.15C271.876 21.15 273.36 22.6333 274.493 24.6C275.66 26.5333 276.243 28.8667 276.243 31.6C276.243 34.3333 275.66 36.6833 274.493 38.65C273.36 40.5833 271.876 42.0667 270.043 43.1C268.21 44.1 266.26 44.6 264.193 44.6ZM264.193 38.65C265.193 38.65 266.026 38.3667 266.693 37.8C267.393 37.2333 267.91 36.4167 268.243 35.35C268.576 34.2833 268.743 33.0333 268.743 31.6C268.743 30.1667 268.576 28.9167 268.243 27.85C267.91 26.7833 267.393 25.9667 266.693 25.4C266.026 24.8333 265.193 24.55 264.193 24.55C263.16 24.55 262.31 24.8333 261.643 25.4C260.976 25.9667 260.476 26.7833 260.143 27.85C259.81 28.9167 259.643 30.1667 259.643 31.6C259.643 33.0333 259.81 34.2833 260.143 35.35C260.476 36.4167 260.976 37.2333 261.643 37.8C262.31 38.3667 263.16 38.65 264.193 38.65ZM281.277 44V19.2H287.277L287.777 22.4H287.977C288.977 21.3667 290.061 20.4833 291.227 19.75C292.427 18.9833 293.844 18.6 295.477 18.6C297.244 18.6 298.677 18.9667 299.777 19.7C300.877 20.4 301.727 21.4167 302.327 22.75C303.427 21.6167 304.594 20.65 305.827 19.85C307.061 19.0167 308.494 18.6 310.127 18.6C312.827 18.6 314.794 19.5 316.027 21.3C317.261 23.0667 317.877 25.5 317.877 28.6V44H310.527V29.55C310.527 27.75 310.277 26.5167 309.777 25.85C309.311 25.1833 308.544 24.85 307.477 24.85C306.844 24.85 306.177 25.05 305.477 25.45C304.777 25.8167 304.027 26.4167 303.227 27.25V44H295.877V29.55C295.877 27.75 295.627 26.5167 295.127 25.85C294.661 25.1833 293.894 24.85 292.827 24.85C291.561 24.85 290.161 25.65 288.627 27.25V44H281.277ZM335.248 44.6C332.882 44.6 330.748 44.0833 328.848 43.05C326.948 42.0167 325.448 40.5333 324.348 38.6C323.248 36.6667 322.698 34.3333 322.698 31.6C322.698 28.9 323.248 26.5833 324.348 24.65C325.482 22.7167 326.948 21.2333 328.748 20.2C330.548 19.1333 332.432 18.6 334.398 18.6C336.765 18.6 338.732 19.1333 340.298 20.2C341.865 21.2333 343.032 22.65 343.798 24.45C344.565 26.25 344.948 28.2667 344.948 30.5C344.948 31.1333 344.915 31.7667 344.848 32.4C344.782 33 344.715 33.4833 344.648 33.85H328.398L328.298 28.75H338.648C338.648 27.45 338.332 26.3833 337.698 25.55C337.065 24.6833 336.015 24.25 334.548 24.25C333.748 24.25 332.965 24.4667 332.198 24.9C331.432 25.3333 330.798 26.0833 330.298 27.15C329.798 28.2167 329.565 29.7 329.598 31.6C329.632 33.4667 329.965 34.9333 330.598 36C331.265 37.0667 332.098 37.8333 333.098 38.3C334.098 38.7333 335.148 38.95 336.248 38.95C337.215 38.95 338.132 38.8167 338.998 38.55C339.898 38.25 340.782 37.85 341.648 37.35L344.048 41.85C342.815 42.7167 341.415 43.4 339.848 43.9C338.282 44.3667 336.748 44.6 335.248 44.6Z" fill="#DD9F52" />
</svg>
    