<svg width="218" height="47" viewBox="0 0 218 47" fill="none" xmlns="http://www.w3.org/2000/svg">
    <path d="M0 20C0 8.95431 8.9543 0 20 0H111V27C111 38.0457 102.046 47 91 47H0V20Z" fill="#DD9F52" />
    <path d="M22.31 35V15.44H29.36C30.74 15.44 32 15.63 33.14 16.01C34.28 16.37 35.19 17 35.87 17.9C36.55 18.78 36.89 19.99 36.89 21.53C36.89 23.03 36.55 24.25 35.87 25.19C35.19 26.13 34.28 26.83 33.14 27.29C32 27.73 30.74 27.95 29.36 27.95H26.72V35H22.31ZM26.72 24.44H29C30.16 24.44 31.04 24.2 31.64 23.72C32.26 23.22 32.57 22.49 32.57 21.53C32.57 20.57 32.26 19.9 31.64 19.52C31.04 19.14 30.16 18.95 29 18.95H26.72V24.44ZM32.9 35L28.55 26.81L31.61 23.96L37.85 35H32.9ZM46.7155 35.36C45.2955 35.36 44.0155 35.05 42.8755 34.43C41.7355 33.81 40.8355 32.92 40.1755 31.76C39.5155 30.6 39.1855 29.2 39.1855 27.56C39.1855 25.94 39.5155 24.55 40.1755 23.39C40.8555 22.23 41.7355 21.34 42.8155 20.72C43.8955 20.08 45.0255 19.76 46.2055 19.76C47.6255 19.76 48.8055 20.08 49.7455 20.72C50.6855 21.34 51.3855 22.19 51.8455 23.27C52.3055 24.35 52.5355 25.56 52.5355 26.9C52.5355 27.28 52.5155 27.66 52.4755 28.04C52.4355 28.4 52.3955 28.69 52.3555 28.91H42.6055L42.5455 25.85H48.7555C48.7555 25.07 48.5655 24.43 48.1855 23.93C47.8055 23.41 47.1755 23.15 46.2955 23.15C45.8155 23.15 45.3455 23.28 44.8855 23.54C44.4255 23.8 44.0455 24.25 43.7455 24.89C43.4455 25.53 43.3055 26.42 43.3255 27.56C43.3455 28.68 43.5455 29.56 43.9255 30.2C44.3255 30.84 44.8255 31.3 45.4255 31.58C46.0255 31.84 46.6555 31.97 47.3155 31.97C47.8955 31.97 48.4455 31.89 48.9655 31.73C49.5055 31.55 50.0355 31.31 50.5555 31.01L51.9955 33.71C51.2555 34.23 50.4155 34.64 49.4755 34.94C48.5355 35.22 47.6155 35.36 46.7155 35.36ZM61.0198 35.33C59.1798 35.33 57.8598 34.8 57.0598 33.74C56.2598 32.66 55.8598 31.27 55.8598 29.57V23.57H53.8498V20.3L56.1298 20.12L56.6398 15.56H60.2998V20.12H63.8698V23.57H60.2998V29.51C60.2998 30.35 60.4698 30.96 60.8098 31.34C61.1698 31.7 61.6398 31.88 62.2198 31.88C62.4598 31.88 62.6998 31.86 62.9398 31.82C63.1798 31.78 63.4098 31.72 63.6298 31.64L64.3498 34.73C63.9698 34.89 63.4898 35.03 62.9098 35.15C62.3498 35.27 61.7198 35.33 61.0198 35.33ZM69.909 35.36C69.009 35.36 68.219 35.16 67.539 34.76C66.879 34.36 66.369 33.82 66.009 33.14C65.649 32.46 65.469 31.7 65.469 30.86C65.469 29.26 66.129 28.03 67.449 27.17C68.769 26.29 70.899 25.7 73.839 25.4C73.819 24.96 73.719 24.59 73.539 24.29C73.379 23.97 73.129 23.73 72.789 23.57C72.449 23.39 72.019 23.3 71.499 23.3C70.879 23.3 70.249 23.41 69.609 23.63C68.969 23.85 68.279 24.17 67.539 24.59L65.979 21.71C66.619 21.31 67.279 20.97 67.959 20.69C68.639 20.39 69.339 20.16 70.059 20C70.799 19.84 71.559 19.76 72.339 19.76C73.619 19.76 74.689 20.01 75.549 20.51C76.429 20.99 77.099 21.73 77.559 22.73C78.019 23.71 78.249 24.97 78.249 26.51V35H74.649L74.349 33.47H74.229C73.589 34.03 72.919 34.49 72.219 34.85C71.519 35.19 70.749 35.36 69.909 35.36ZM71.379 31.91C71.879 31.91 72.319 31.8 72.699 31.58C73.079 31.36 73.459 31.06 73.839 30.68V28.16C72.799 28.3 71.969 28.48 71.349 28.7C70.749 28.92 70.319 29.19 70.059 29.51C69.819 29.81 69.699 30.15 69.699 30.53C69.699 30.99 69.849 31.34 70.149 31.58C70.469 31.8 70.879 31.91 71.379 31.91ZM81.9793 35V20.12H86.3893V35H81.9793ZM84.1693 17.93C83.4293 17.93 82.8293 17.72 82.3693 17.3C81.9093 16.88 81.6793 16.32 81.6793 15.62C81.6793 14.92 81.9093 14.36 82.3693 13.94C82.8293 13.52 83.4293 13.31 84.1693 13.31C84.9093 13.31 85.5093 13.52 85.9693 13.94C86.4293 14.36 86.6593 14.92 86.6593 15.62C86.6593 16.32 86.4293 16.88 85.9693 17.3C85.5093 17.72 84.9093 17.93 84.1693 17.93ZM94.3203 35.33C93.3203 35.33 92.5203 35.13 91.9203 34.73C91.3403 34.31 90.9203 33.73 90.6603 32.99C90.4003 32.23 90.2703 31.35 90.2703 30.35V14H94.6803V30.53C94.6803 31.01 94.7603 31.34 94.9203 31.52C95.1003 31.68 95.2903 31.76 95.4903 31.76C95.5703 31.76 95.6403 31.76 95.7003 31.76C95.7803 31.74 95.8803 31.72 96.0003 31.7L96.5403 34.97C96.3003 35.07 95.9903 35.15 95.6103 35.21C95.2503 35.29 94.8203 35.33 94.3203 35.33Z" fill="white" />
    <path d="M125.512 35.36C123.832 35.36 122.292 34.99 120.892 34.25C119.512 33.49 118.402 32.36 117.562 30.86C116.722 29.36 116.302 27.52 116.302 25.34C116.302 23.72 116.542 22.28 117.022 21.02C117.522 19.74 118.202 18.66 119.062 17.78C119.922 16.9 120.902 16.23 122.002 15.77C123.122 15.31 124.302 15.08 125.542 15.08C126.802 15.08 127.932 15.33 128.932 15.83C129.932 16.33 130.762 16.93 131.422 17.63L129.082 20.3C128.602 19.84 128.082 19.5 127.522 19.28C126.962 19.04 126.332 18.92 125.632 18.92C124.772 18.92 123.972 19.18 123.232 19.7C122.512 20.2 121.932 20.92 121.492 21.86C121.052 22.8 120.832 23.91 120.832 25.19C120.832 26.53 121.042 27.68 121.462 28.64C121.882 29.58 122.462 30.3 123.202 30.8C123.962 31.3 124.832 31.55 125.812 31.55C126.572 31.55 127.252 31.39 127.852 31.07C128.452 30.75 128.982 30.37 129.442 29.93L131.662 32.54C130.822 33.48 129.892 34.19 128.872 34.67C127.852 35.13 126.732 35.36 125.512 35.36ZM134.333 35V13.97H138.743V19.13L138.533 21.8C139.093 21.3 139.743 20.84 140.483 20.42C141.243 19.98 142.123 19.76 143.123 19.76C144.763 19.76 145.943 20.3 146.663 21.38C147.383 22.44 147.743 23.9 147.743 25.76V35H143.333V26.33C143.333 25.25 143.183 24.51 142.883 24.11C142.603 23.71 142.143 23.51 141.503 23.51C140.943 23.51 140.463 23.64 140.063 23.9C139.663 24.14 139.223 24.49 138.743 24.95V35H134.333ZM151.471 35V20.12H155.071L155.371 22.73H155.491C156.031 21.73 156.671 20.99 157.411 20.51C158.171 20.01 158.941 19.76 159.721 19.76C160.141 19.76 160.491 19.79 160.771 19.85C161.051 19.89 161.291 19.96 161.491 20.06L160.651 23.81C160.411 23.75 160.181 23.71 159.961 23.69C159.741 23.65 159.471 23.63 159.151 23.63C158.591 23.63 158.001 23.83 157.381 24.23C156.781 24.63 156.281 25.34 155.881 26.36V35H151.471ZM169.522 35.36C168.262 35.36 167.082 35.06 165.982 34.46C164.882 33.84 163.982 32.95 163.282 31.79C162.602 30.61 162.262 29.2 162.262 27.56C162.262 25.92 162.602 24.52 163.282 23.36C163.982 22.18 164.882 21.29 165.982 20.69C167.082 20.07 168.262 19.76 169.522 19.76C170.762 19.76 171.932 20.07 173.032 20.69C174.132 21.29 175.022 22.18 175.702 23.36C176.402 24.52 176.752 25.92 176.752 27.56C176.752 29.2 176.402 30.61 175.702 31.79C175.022 32.95 174.132 33.84 173.032 34.46C171.932 35.06 170.762 35.36 169.522 35.36ZM169.522 31.79C170.122 31.79 170.622 31.62 171.022 31.28C171.442 30.94 171.752 30.45 171.952 29.81C172.152 29.17 172.252 28.42 172.252 27.56C172.252 26.7 172.152 25.95 171.952 25.31C171.752 24.67 171.442 24.18 171.022 23.84C170.622 23.5 170.122 23.33 169.522 23.33C168.902 23.33 168.392 23.5 167.992 23.84C167.592 24.18 167.292 24.67 167.092 25.31C166.892 25.95 166.792 26.7 166.792 27.56C166.792 28.42 166.892 29.17 167.092 29.81C167.292 30.45 167.592 30.94 167.992 31.28C168.392 31.62 168.902 31.79 169.522 31.79ZM179.772 35V20.12H183.372L183.672 22.04H183.792C184.392 21.42 185.042 20.89 185.742 20.45C186.462 19.99 187.312 19.76 188.292 19.76C189.352 19.76 190.212 19.98 190.872 20.42C191.532 20.84 192.042 21.45 192.402 22.25C193.062 21.57 193.762 20.99 194.502 20.51C195.242 20.01 196.102 19.76 197.082 19.76C198.702 19.76 199.882 20.3 200.622 21.38C201.362 22.44 201.732 23.9 201.732 25.76V35H197.322V26.33C197.322 25.25 197.172 24.51 196.872 24.11C196.592 23.71 196.132 23.51 195.492 23.51C195.112 23.51 194.712 23.63 194.292 23.87C193.872 24.09 193.422 24.45 192.942 24.95V35H188.532V26.33C188.532 25.25 188.382 24.51 188.082 24.11C187.802 23.71 187.342 23.51 186.702 23.51C185.942 23.51 185.102 23.99 184.182 24.95V35H179.772ZM212.155 35.36C210.735 35.36 209.455 35.05 208.315 34.43C207.175 33.81 206.275 32.92 205.615 31.76C204.955 30.6 204.625 29.2 204.625 27.56C204.625 25.94 204.955 24.55 205.615 23.39C206.295 22.23 207.175 21.34 208.255 20.72C209.335 20.08 210.465 19.76 211.645 19.76C213.065 19.76 214.245 20.08 215.185 20.72C216.125 21.34 216.825 22.19 217.285 23.27C217.745 24.35 217.975 25.56 217.975 26.9C217.975 27.28 217.955 27.66 217.915 28.04C217.875 28.4 217.835 28.69 217.795 28.91H208.045L207.985 25.85H214.195C214.195 25.07 214.005 24.43 213.625 23.93C213.245 23.41 212.615 23.15 211.735 23.15C211.255 23.15 210.785 23.28 210.325 23.54C209.865 23.8 209.485 24.25 209.185 24.89C208.885 25.53 208.745 26.42 208.765 27.56C208.785 28.68 208.985 29.56 209.365 30.2C209.765 30.84 210.265 31.3 210.865 31.58C211.465 31.84 212.095 31.97 212.755 31.97C213.335 31.97 213.885 31.89 214.405 31.73C214.945 31.55 215.475 31.31 215.995 31.01L217.435 33.71C216.695 34.23 215.855 34.64 214.915 34.94C213.975 35.22 213.055 35.36 212.155 35.36Z" fill="#DD9F52" />
</svg>
    