<svg width="233" height="51" viewBox="0 0 233 51" fill="none" xmlns="http://www.w3.org/2000/svg">
    <path d="M0 20C0 8.9543 8.95431 0 20 0H127V31C127 42.0457 118.046 51 107 51H0V20Z" fill="#404040" />
    <path d="M23.28 35.36C21.98 35.36 20.7 35.13 19.44 34.67C18.18 34.19 17.05 33.47 16.05 32.51L18.39 29.63C19.09 30.23 19.88 30.7 20.76 31.04C21.66 31.38 22.54 31.55 23.4 31.55C24.32 31.55 25 31.38 25.44 31.04C25.9 30.7 26.13 30.24 26.13 29.66C26.13 29.24 26.01 28.91 25.77 28.67C25.55 28.41 25.23 28.18 24.81 27.98C24.39 27.78 23.89 27.56 23.31 27.32L20.76 26.27C20.1 25.97 19.46 25.59 18.84 25.13C18.24 24.65 17.75 24.07 17.37 23.39C17.01 22.69 16.83 21.86 16.83 20.9C16.83 19.82 17.12 18.85 17.7 17.99C18.3 17.11 19.12 16.41 20.16 15.89C21.22 15.35 22.43 15.08 23.79 15.08C24.97 15.08 26.11 15.29 27.21 15.71C28.31 16.13 29.27 16.74 30.09 17.54L27.75 20.39C27.11 19.91 26.45 19.54 25.77 19.28C25.11 19.02 24.45 18.89 23.79 18.89C23.03 18.89 22.42 19.05 21.96 19.37C21.52 19.67 21.3 20.1 21.3 20.66C21.3 21.04 21.43 21.37 21.69 21.65C21.95 21.91 22.31 22.14 22.77 22.34C23.23 22.52 23.73 22.73 24.27 22.97L26.79 23.99C27.59 24.31 28.27 24.71 28.83 25.19C29.41 25.67 29.86 26.25 30.18 26.93C30.5 27.59 30.66 28.38 30.66 29.3C30.66 30.38 30.37 31.38 29.79 32.3C29.21 33.22 28.37 33.96 27.27 34.52C26.17 35.08 24.84 35.36 23.28 35.36ZM40.0099 35.36C38.7499 35.36 37.5699 35.06 36.4699 34.46C35.3699 33.84 34.4699 32.95 33.7699 31.79C33.0899 30.61 32.7499 29.2 32.7499 27.56C32.7499 25.92 33.0899 24.52 33.7699 23.36C34.4699 22.18 35.3699 21.29 36.4699 20.69C37.5699 20.07 38.7499 19.76 40.0099 19.76C41.2499 19.76 42.4199 20.07 43.5199 20.69C44.6199 21.29 45.5099 22.18 46.1899 23.36C46.8899 24.52 47.2399 25.92 47.2399 27.56C47.2399 29.2 46.8899 30.61 46.1899 31.79C45.5099 32.95 44.6199 33.84 43.5199 34.46C42.4199 35.06 41.2499 35.36 40.0099 35.36ZM40.0099 31.79C40.6099 31.79 41.1099 31.62 41.5099 31.28C41.9299 30.94 42.2399 30.45 42.4399 29.81C42.6399 29.17 42.7399 28.42 42.7399 27.56C42.7399 26.7 42.6399 25.95 42.4399 25.31C42.2399 24.67 41.9299 24.18 41.5099 23.84C41.1099 23.5 40.6099 23.33 40.0099 23.33C39.3899 23.33 38.8799 23.5 38.4799 23.84C38.0799 24.18 37.7799 24.67 37.5799 25.31C37.3799 25.95 37.2799 26.7 37.2799 27.56C37.2799 28.42 37.3799 29.17 37.5799 29.81C37.7799 30.45 38.0799 30.94 38.4799 31.28C38.8799 31.62 39.3899 31.79 40.0099 31.79ZM54.3105 35.33C53.3105 35.33 52.5105 35.13 51.9105 34.73C51.3305 34.31 50.9105 33.73 50.6505 32.99C50.3905 32.23 50.2605 31.35 50.2605 30.35V14H54.6705V30.53C54.6705 31.01 54.7505 31.34 54.9105 31.52C55.0905 31.68 55.2805 31.76 55.4805 31.76C55.5605 31.76 55.6305 31.76 55.6905 31.76C55.7705 31.74 55.8705 31.72 55.9905 31.7L56.5305 34.97C56.2905 35.07 55.9805 35.15 55.6005 35.21C55.2405 35.29 54.8105 35.33 54.3105 35.33ZM58.8445 35V20.12H63.2545V35H58.8445ZM61.0345 17.93C60.2945 17.93 59.6945 17.72 59.2345 17.3C58.7745 16.88 58.5445 16.32 58.5445 15.62C58.5445 14.92 58.7745 14.36 59.2345 13.94C59.6945 13.52 60.2945 13.31 61.0345 13.31C61.7745 13.31 62.3745 13.52 62.8345 13.94C63.2945 14.36 63.5245 14.92 63.5245 15.62C63.5245 16.32 63.2945 16.88 62.8345 17.3C62.3745 17.72 61.7745 17.93 61.0345 17.93ZM72.4455 35.36C70.6055 35.36 69.1255 34.67 68.0055 33.29C66.9055 31.89 66.3555 29.98 66.3555 27.56C66.3555 25.94 66.6455 24.55 67.2255 23.39C67.8255 22.23 68.5955 21.34 69.5355 20.72C70.4955 20.08 71.4955 19.76 72.5355 19.76C73.3555 19.76 74.0455 19.9 74.6055 20.18C75.1655 20.46 75.6955 20.84 76.1955 21.32L76.0155 19.04V13.97H80.4255V35H76.8255L76.5255 33.53H76.4055C75.8855 34.05 75.2755 34.49 74.5755 34.85C73.8755 35.19 73.1655 35.36 72.4455 35.36ZM73.5855 31.76C74.0655 31.76 74.5055 31.66 74.9055 31.46C75.3055 31.26 75.6755 30.91 76.0155 30.41V24.32C75.6355 23.96 75.2355 23.71 74.8155 23.57C74.3955 23.43 73.9755 23.36 73.5555 23.36C73.0755 23.36 72.6355 23.51 72.2355 23.81C71.8355 24.11 71.5055 24.57 71.2455 25.19C71.0055 25.79 70.8855 26.56 70.8855 27.5C70.8855 28.96 71.1255 30.04 71.6055 30.74C72.0855 31.42 72.7455 31.76 73.5855 31.76ZM84.3328 35V20.12H88.7428V35H84.3328ZM86.5228 17.93C85.7828 17.93 85.1828 17.72 84.7228 17.3C84.2628 16.88 84.0328 16.32 84.0328 15.62C84.0328 14.92 84.2628 14.36 84.7228 13.94C85.1828 13.52 85.7828 13.31 86.5228 13.31C87.2628 13.31 87.8628 13.52 88.3228 13.94C88.7828 14.36 89.0128 14.92 89.0128 15.62C89.0128 16.32 88.7828 16.88 88.3228 17.3C87.8628 17.72 87.2628 17.93 86.5228 17.93ZM98.3538 35.33C96.5138 35.33 95.1938 34.8 94.3938 33.74C93.5938 32.66 93.1938 31.27 93.1938 29.57V23.57H91.1838V20.3L93.4638 20.12L93.9738 15.56H97.6338V20.12H101.204V23.57H97.6338V29.51C97.6338 30.35 97.8038 30.96 98.1438 31.34C98.5038 31.7 98.9738 31.88 99.5538 31.88C99.7938 31.88 100.034 31.86 100.274 31.82C100.514 31.78 100.744 31.72 100.964 31.64L101.684 34.73C101.304 34.89 100.824 35.03 100.244 35.15C99.6838 35.27 99.0538 35.33 98.3538 35.33ZM105.758 40.82C105.318 40.82 104.928 40.79 104.588 40.73C104.268 40.67 103.958 40.58 103.658 40.46L104.438 37.22C104.658 37.28 104.838 37.31 104.978 37.31C105.138 37.33 105.288 37.34 105.428 37.34C106.168 37.34 106.738 37.15 107.138 36.77C107.558 36.41 107.858 35.95 108.038 35.39L108.248 34.61L102.518 20.12H106.958L109.088 26.51C109.308 27.19 109.508 27.88 109.688 28.58C109.868 29.28 110.058 30 110.258 30.74H110.378C110.538 30.04 110.698 29.34 110.858 28.64C111.038 27.92 111.218 27.21 111.398 26.51L113.198 20.12H117.428L112.268 35.15C111.788 36.39 111.268 37.43 110.708 38.27C110.168 39.11 109.498 39.74 108.698 40.16C107.918 40.6 106.938 40.82 105.758 40.82Z" fill="white" />
    <path d="M140.404 35.36C138.724 35.36 137.184 34.99 135.784 34.25C134.404 33.49 133.294 32.36 132.454 30.86C131.614 29.36 131.194 27.52 131.194 25.34C131.194 23.72 131.434 22.28 131.914 21.02C132.414 19.74 133.094 18.66 133.954 17.78C134.814 16.9 135.794 16.23 136.894 15.77C138.014 15.31 139.194 15.08 140.434 15.08C141.694 15.08 142.824 15.33 143.824 15.83C144.824 16.33 145.654 16.93 146.314 17.63L143.974 20.3C143.494 19.84 142.974 19.5 142.414 19.28C141.854 19.04 141.224 18.92 140.524 18.92C139.664 18.92 138.864 19.18 138.124 19.7C137.404 20.2 136.824 20.92 136.384 21.86C135.944 22.8 135.724 23.91 135.724 25.19C135.724 26.53 135.934 27.68 136.354 28.64C136.774 29.58 137.354 30.3 138.094 30.8C138.854 31.3 139.724 31.55 140.704 31.55C141.464 31.55 142.144 31.39 142.744 31.07C143.344 30.75 143.874 30.37 144.334 29.93L146.554 32.54C145.714 33.48 144.784 34.19 143.764 34.67C142.744 35.13 141.624 35.36 140.404 35.36ZM149.225 35V13.97H153.635V19.13L153.425 21.8C153.985 21.3 154.635 20.84 155.375 20.42C156.135 19.98 157.015 19.76 158.015 19.76C159.655 19.76 160.835 20.3 161.555 21.38C162.275 22.44 162.635 23.9 162.635 25.76V35H158.225V26.33C158.225 25.25 158.075 24.51 157.775 24.11C157.495 23.71 157.035 23.51 156.395 23.51C155.835 23.51 155.355 23.64 154.955 23.9C154.555 24.14 154.115 24.49 153.635 24.95V35H149.225ZM166.364 35V20.12H169.964L170.264 22.73H170.384C170.924 21.73 171.564 20.99 172.304 20.51C173.064 20.01 173.834 19.76 174.614 19.76C175.034 19.76 175.384 19.79 175.664 19.85C175.944 19.89 176.184 19.96 176.384 20.06L175.544 23.81C175.304 23.75 175.074 23.71 174.854 23.69C174.634 23.65 174.364 23.63 174.044 23.63C173.484 23.63 172.894 23.83 172.274 24.23C171.674 24.63 171.174 25.34 170.774 26.36V35H166.364ZM184.414 35.36C183.154 35.36 181.974 35.06 180.874 34.46C179.774 33.84 178.874 32.95 178.174 31.79C177.494 30.61 177.154 29.2 177.154 27.56C177.154 25.92 177.494 24.52 178.174 23.36C178.874 22.18 179.774 21.29 180.874 20.69C181.974 20.07 183.154 19.76 184.414 19.76C185.654 19.76 186.824 20.07 187.924 20.69C189.024 21.29 189.914 22.18 190.594 23.36C191.294 24.52 191.644 25.92 191.644 27.56C191.644 29.2 191.294 30.61 190.594 31.79C189.914 32.95 189.024 33.84 187.924 34.46C186.824 35.06 185.654 35.36 184.414 35.36ZM184.414 31.79C185.014 31.79 185.514 31.62 185.914 31.28C186.334 30.94 186.644 30.45 186.844 29.81C187.044 29.17 187.144 28.42 187.144 27.56C187.144 26.7 187.044 25.95 186.844 25.31C186.644 24.67 186.334 24.18 185.914 23.84C185.514 23.5 185.014 23.33 184.414 23.33C183.794 23.33 183.284 23.5 182.884 23.84C182.484 24.18 182.184 24.67 181.984 25.31C181.784 25.95 181.684 26.7 181.684 27.56C181.684 28.42 181.784 29.17 181.984 29.81C182.184 30.45 182.484 30.94 182.884 31.28C183.284 31.62 183.794 31.79 184.414 31.79ZM194.665 35V20.12H198.265L198.565 22.04H198.685C199.285 21.42 199.935 20.89 200.635 20.45C201.355 19.99 202.205 19.76 203.185 19.76C204.245 19.76 205.105 19.98 205.765 20.42C206.425 20.84 206.935 21.45 207.295 22.25C207.955 21.57 208.655 20.99 209.395 20.51C210.135 20.01 210.995 19.76 211.975 19.76C213.595 19.76 214.775 20.3 215.515 21.38C216.255 22.44 216.625 23.9 216.625 25.76V35H212.215V26.33C212.215 25.25 212.065 24.51 211.765 24.11C211.485 23.71 211.025 23.51 210.385 23.51C210.005 23.51 209.605 23.63 209.185 23.87C208.765 24.09 208.315 24.45 207.835 24.95V35H203.425V26.33C203.425 25.25 203.275 24.51 202.975 24.11C202.695 23.71 202.235 23.51 201.595 23.51C200.835 23.51 199.995 23.99 199.075 24.95V35H194.665ZM227.048 35.36C225.628 35.36 224.348 35.05 223.208 34.43C222.068 33.81 221.168 32.92 220.508 31.76C219.848 30.6 219.518 29.2 219.518 27.56C219.518 25.94 219.848 24.55 220.508 23.39C221.188 22.23 222.068 21.34 223.148 20.72C224.228 20.08 225.358 19.76 226.538 19.76C227.958 19.76 229.138 20.08 230.078 20.72C231.018 21.34 231.718 22.19 232.178 23.27C232.638 24.35 232.868 25.56 232.868 26.9C232.868 27.28 232.848 27.66 232.808 28.04C232.768 28.4 232.728 28.69 232.688 28.91H222.938L222.878 25.85H229.088C229.088 25.07 228.898 24.43 228.518 23.93C228.138 23.41 227.508 23.15 226.628 23.15C226.148 23.15 225.678 23.28 225.218 23.54C224.758 23.8 224.378 24.25 224.078 24.89C223.778 25.53 223.638 26.42 223.658 27.56C223.678 28.68 223.878 29.56 224.258 30.2C224.658 30.84 225.158 31.3 225.758 31.58C226.358 31.84 226.988 31.97 227.648 31.97C228.228 31.97 228.778 31.89 229.298 31.73C229.838 31.55 230.368 31.31 230.888 31.01L232.328 33.71C231.588 34.23 230.748 34.64 229.808 34.94C228.868 35.22 227.948 35.36 227.048 35.36Z" fill="black" />
</svg>
    